<mxfile host="app.diagrams.net" agent="Mozilla/5.0 (X11; Ubuntu; Linux x86_64; rv:131.0) Gecko/20100101 Firefox/131.0" version="24.8.3">
  <diagram name="PÃ¡gina-1" id="TTVn241OmPXhMdDyWpZ5">
    <mxGraphModel dx="461" dy="1975" grid="1" gridSize="10" guides="1" tooltips="1" connect="1" arrows="1" fold="1" page="1" pageScale="1" pageWidth="827" pageHeight="1169" math="0" shadow="0">
      <root>
        <mxCell id="0" />
        <mxCell id="1" parent="0" />
        <mxCell id="45oS4C0SvB9Kl9MP0dxG-2" value="Product" style="swimlane;fontStyle=1;align=center;verticalAlign=top;childLayout=stackLayout;horizontal=1;startSize=26;horizontalStack=0;resizeParent=1;resizeParentMax=0;resizeLast=0;collapsible=1;marginBottom=0;whiteSpace=wrap;html=1;fontFamily=Cascadia Code;rounded=1;fillColor=#dae8fc;strokeColor=#6c8ebf;" parent="1" vertex="1">
          <mxGeometry x="610" y="70" width="180" height="208" as="geometry" />
        </mxCell>
        <mxCell id="45oS4C0SvB9Kl9MP0dxG-3" value="- id: UUID" style="text;align=left;verticalAlign=top;spacingLeft=4;spacingRight=4;overflow=hidden;rotatable=0;points=[[0,0.5],[1,0.5]];portConstraint=eastwest;whiteSpace=wrap;html=1;fontFamily=Cascadia Code;" parent="45oS4C0SvB9Kl9MP0dxG-2" vertex="1">
          <mxGeometry y="26" width="180" height="26" as="geometry" />
        </mxCell>
        <mxCell id="WNG-E03-8D0otMJcHpS6-30" value="- name: String" style="text;align=left;verticalAlign=top;spacingLeft=4;spacingRight=4;overflow=hidden;rotatable=0;points=[[0,0.5],[1,0.5]];portConstraint=eastwest;whiteSpace=wrap;html=1;fontFamily=Cascadia Code;" parent="45oS4C0SvB9Kl9MP0dxG-2" vertex="1">
          <mxGeometry y="52" width="180" height="26" as="geometry" />
        </mxCell>
        <mxCell id="WNG-E03-8D0otMJcHpS6-66" value="- description: String" style="text;align=left;verticalAlign=top;spacingLeft=4;spacingRight=4;overflow=hidden;rotatable=0;points=[[0,0.5],[1,0.5]];portConstraint=eastwest;whiteSpace=wrap;html=1;fontFamily=Cascadia Code;" parent="45oS4C0SvB9Kl9MP0dxG-2" vertex="1">
          <mxGeometry y="78" width="180" height="26" as="geometry" />
        </mxCell>
        <mxCell id="WNG-E03-8D0otMJcHpS6-87" value="- amountInStock: int" style="text;align=left;verticalAlign=top;spacingLeft=4;spacingRight=4;overflow=hidden;rotatable=0;points=[[0,0.5],[1,0.5]];portConstraint=eastwest;whiteSpace=wrap;html=1;fontFamily=Cascadia Code;" parent="45oS4C0SvB9Kl9MP0dxG-2" vertex="1">
          <mxGeometry y="104" width="180" height="26" as="geometry" />
        </mxCell>
        <mxCell id="wmJKvVizC2H3wOnnuJJJ-1" value="- unitPrice: BigDecimal" style="text;align=left;verticalAlign=top;spacingLeft=4;spacingRight=4;overflow=hidden;rotatable=0;points=[[0,0.5],[1,0.5]];portConstraint=eastwest;whiteSpace=wrap;html=1;fontFamily=Cascadia Code;" parent="45oS4C0SvB9Kl9MP0dxG-2" vertex="1">
          <mxGeometry y="130" width="180" height="26" as="geometry" />
        </mxCell>
        <mxCell id="WNG-E03-8D0otMJcHpS6-88" value="- seller: Seller" style="text;align=left;verticalAlign=top;spacingLeft=4;spacingRight=4;overflow=hidden;rotatable=0;points=[[0,0.5],[1,0.5]];portConstraint=eastwest;whiteSpace=wrap;html=1;fontFamily=Cascadia Code;" parent="45oS4C0SvB9Kl9MP0dxG-2" vertex="1">
          <mxGeometry y="156" width="180" height="26" as="geometry" />
        </mxCell>
        <mxCell id="WNG-E03-8D0otMJcHpS6-89" value="- store: Store" style="text;align=left;verticalAlign=top;spacingLeft=4;spacingRight=4;overflow=hidden;rotatable=0;points=[[0,0.5],[1,0.5]];portConstraint=eastwest;whiteSpace=wrap;html=1;fontFamily=Cascadia Code;" parent="45oS4C0SvB9Kl9MP0dxG-2" vertex="1">
          <mxGeometry y="182" width="180" height="26" as="geometry" />
        </mxCell>
        <mxCell id="45oS4C0SvB9Kl9MP0dxG-7" value="Cart" style="swimlane;fontStyle=1;align=center;verticalAlign=top;childLayout=stackLayout;horizontal=1;startSize=26;horizontalStack=0;resizeParent=1;resizeParentMax=0;resizeLast=0;collapsible=1;marginBottom=0;whiteSpace=wrap;html=1;fontFamily=Cascadia Code;rounded=1;fillColor=#dae8fc;strokeColor=#6c8ebf;" parent="1" vertex="1">
          <mxGeometry x="90" y="382" width="160" height="78" as="geometry" />
        </mxCell>
        <mxCell id="45oS4C0SvB9Kl9MP0dxG-8" value="- id: UUID" style="text;align=left;verticalAlign=top;spacingLeft=4;spacingRight=4;overflow=hidden;rotatable=0;points=[[0,0.5],[1,0.5]];portConstraint=eastwest;whiteSpace=wrap;html=1;fontFamily=Cascadia Code;" parent="45oS4C0SvB9Kl9MP0dxG-7" vertex="1">
          <mxGeometry y="26" width="160" height="26" as="geometry" />
        </mxCell>
        <mxCell id="WNG-E03-8D0otMJcHpS6-63" value="- customer: Customer" style="text;align=left;verticalAlign=top;spacingLeft=4;spacingRight=4;overflow=hidden;rotatable=0;points=[[0,0.5],[1,0.5]];portConstraint=eastwest;whiteSpace=wrap;html=1;fontFamily=Cascadia Code;" parent="45oS4C0SvB9Kl9MP0dxG-7" vertex="1">
          <mxGeometry y="52" width="160" height="26" as="geometry" />
        </mxCell>
        <mxCell id="45oS4C0SvB9Kl9MP0dxG-11" value="User" style="swimlane;fontStyle=1;align=center;verticalAlign=top;childLayout=stackLayout;horizontal=1;startSize=26;horizontalStack=0;resizeParent=1;resizeParentMax=0;resizeLast=0;collapsible=1;marginBottom=0;whiteSpace=wrap;html=1;fontFamily=Cascadia Code;rounded=1;fillColor=#dae8fc;strokeColor=#6c8ebf;" parent="1" vertex="1">
          <mxGeometry x="290.39" y="330" width="189.61" height="130" as="geometry" />
        </mxCell>
        <mxCell id="45oS4C0SvB9Kl9MP0dxG-12" value="- id: UUID" style="text;align=left;verticalAlign=top;spacingLeft=4;spacingRight=4;overflow=hidden;rotatable=0;points=[[0,0.5],[1,0.5]];portConstraint=eastwest;whiteSpace=wrap;html=1;fontFamily=Cascadia Code;" parent="45oS4C0SvB9Kl9MP0dxG-11" vertex="1">
          <mxGeometry y="26" width="189.61" height="26" as="geometry" />
        </mxCell>
        <mxCell id="WNG-E03-8D0otMJcHpS6-74" value="- name: String" style="text;align=left;verticalAlign=top;spacingLeft=4;spacingRight=4;overflow=hidden;rotatable=0;points=[[0,0.5],[1,0.5]];portConstraint=eastwest;whiteSpace=wrap;html=1;fontFamily=Cascadia Code;" parent="45oS4C0SvB9Kl9MP0dxG-11" vertex="1">
          <mxGeometry y="52" width="189.61" height="26" as="geometry" />
        </mxCell>
        <mxCell id="WNG-E03-8D0otMJcHpS6-75" value="- email: String" style="text;align=left;verticalAlign=top;spacingLeft=4;spacingRight=4;overflow=hidden;rotatable=0;points=[[0,0.5],[1,0.5]];portConstraint=eastwest;whiteSpace=wrap;html=1;fontFamily=Cascadia Code;" parent="45oS4C0SvB9Kl9MP0dxG-11" vertex="1">
          <mxGeometry y="78" width="189.61" height="26" as="geometry" />
        </mxCell>
        <mxCell id="WNG-E03-8D0otMJcHpS6-76" value="- passwordHash: String" style="text;align=left;verticalAlign=top;spacingLeft=4;spacingRight=4;overflow=hidden;rotatable=0;points=[[0,0.5],[1,0.5]];portConstraint=eastwest;whiteSpace=wrap;html=1;fontFamily=Cascadia Code;" parent="45oS4C0SvB9Kl9MP0dxG-11" vertex="1">
          <mxGeometry y="104" width="189.61" height="26" as="geometry" />
        </mxCell>
        <mxCell id="45oS4C0SvB9Kl9MP0dxG-15" value="Seller" style="swimlane;fontStyle=1;align=center;verticalAlign=top;childLayout=stackLayout;horizontal=1;startSize=26;horizontalStack=0;resizeParent=1;resizeParentMax=0;resizeLast=0;collapsible=1;marginBottom=0;whiteSpace=wrap;html=1;fontFamily=Cascadia Code;rounded=1;fillColor=#dae8fc;strokeColor=#6c8ebf;" parent="1" vertex="1">
          <mxGeometry x="400.39" y="580" width="160" height="78" as="geometry" />
        </mxCell>
        <mxCell id="45oS4C0SvB9Kl9MP0dxG-16" value="- id: UUID" style="text;align=left;verticalAlign=top;spacingLeft=4;spacingRight=4;overflow=hidden;rotatable=0;points=[[0,0.5],[1,0.5]];portConstraint=eastwest;whiteSpace=wrap;html=1;fontFamily=Cascadia Code;" parent="45oS4C0SvB9Kl9MP0dxG-15" vertex="1">
          <mxGeometry y="26" width="160" height="26" as="geometry" />
        </mxCell>
        <mxCell id="WNG-E03-8D0otMJcHpS6-80" value="- store: Store" style="text;align=left;verticalAlign=top;spacingLeft=4;spacingRight=4;overflow=hidden;rotatable=0;points=[[0,0.5],[1,0.5]];portConstraint=eastwest;whiteSpace=wrap;html=1;fontFamily=Cascadia Code;" parent="45oS4C0SvB9Kl9MP0dxG-15" vertex="1">
          <mxGeometry y="52" width="160" height="26" as="geometry" />
        </mxCell>
        <mxCell id="45oS4C0SvB9Kl9MP0dxG-23" value="Customer" style="swimlane;fontStyle=1;align=center;verticalAlign=top;childLayout=stackLayout;horizontal=1;startSize=26;horizontalStack=0;resizeParent=1;resizeParentMax=0;resizeLast=0;collapsible=1;marginBottom=0;whiteSpace=wrap;html=1;fontFamily=Cascadia Code;rounded=1;fillColor=#dae8fc;strokeColor=#6c8ebf;" parent="1" vertex="1">
          <mxGeometry x="180.39000000000001" y="580" width="160" height="78" as="geometry" />
        </mxCell>
        <mxCell id="WNG-E03-8D0otMJcHpS6-79" value="- id:UUID" style="text;align=left;verticalAlign=top;spacingLeft=4;spacingRight=4;overflow=hidden;rotatable=0;points=[[0,0.5],[1,0.5]];portConstraint=eastwest;whiteSpace=wrap;html=1;fontFamily=Cascadia Code;" parent="45oS4C0SvB9Kl9MP0dxG-23" vertex="1">
          <mxGeometry y="26" width="160" height="26" as="geometry" />
        </mxCell>
        <mxCell id="45oS4C0SvB9Kl9MP0dxG-24" value="- address:Address" style="text;align=left;verticalAlign=top;spacingLeft=4;spacingRight=4;overflow=hidden;rotatable=0;points=[[0,0.5],[1,0.5]];portConstraint=eastwest;whiteSpace=wrap;html=1;fontFamily=Cascadia Code;" parent="45oS4C0SvB9Kl9MP0dxG-23" vertex="1">
          <mxGeometry y="52" width="160" height="26" as="geometry" />
        </mxCell>
        <mxCell id="45oS4C0SvB9Kl9MP0dxG-27" value="Address" style="swimlane;fontStyle=1;align=center;verticalAlign=top;childLayout=stackLayout;horizontal=1;startSize=26;horizontalStack=0;resizeParent=1;resizeParentMax=0;resizeLast=0;collapsible=1;marginBottom=0;whiteSpace=wrap;html=1;fontFamily=Cascadia Code;rounded=1;fillColor=#dae8fc;strokeColor=#6c8ebf;" parent="1" vertex="1">
          <mxGeometry x="39.96" y="750" width="160" height="234" as="geometry" />
        </mxCell>
        <mxCell id="JbLaRPaKQ31GcKQDkZjJ-1" value="- id: UUID" style="text;align=left;verticalAlign=top;spacingLeft=4;spacingRight=4;overflow=hidden;rotatable=0;points=[[0,0.5],[1,0.5]];portConstraint=eastwest;whiteSpace=wrap;html=1;fontFamily=Cascadia Code;" vertex="1" parent="45oS4C0SvB9Kl9MP0dxG-27">
          <mxGeometry y="26" width="160" height="26" as="geometry" />
        </mxCell>
        <mxCell id="JbLaRPaKQ31GcKQDkZjJ-3" value="- cep: String" style="text;align=left;verticalAlign=top;spacingLeft=4;spacingRight=4;overflow=hidden;rotatable=0;points=[[0,0.5],[1,0.5]];portConstraint=eastwest;whiteSpace=wrap;html=1;fontFamily=Cascadia Code;" vertex="1" parent="45oS4C0SvB9Kl9MP0dxG-27">
          <mxGeometry y="52" width="160" height="26" as="geometry" />
        </mxCell>
        <mxCell id="45oS4C0SvB9Kl9MP0dxG-28" value="- street: String" style="text;align=left;verticalAlign=top;spacingLeft=4;spacingRight=4;overflow=hidden;rotatable=0;points=[[0,0.5],[1,0.5]];portConstraint=eastwest;whiteSpace=wrap;html=1;fontFamily=Cascadia Code;" parent="45oS4C0SvB9Kl9MP0dxG-27" vertex="1">
          <mxGeometry y="78" width="160" height="26" as="geometry" />
        </mxCell>
        <mxCell id="WNG-E03-8D0otMJcHpS6-70" value="- number: int" style="text;align=left;verticalAlign=top;spacingLeft=4;spacingRight=4;overflow=hidden;rotatable=0;points=[[0,0.5],[1,0.5]];portConstraint=eastwest;whiteSpace=wrap;html=1;fontFamily=Cascadia Code;" parent="45oS4C0SvB9Kl9MP0dxG-27" vertex="1">
          <mxGeometry y="104" width="160" height="26" as="geometry" />
        </mxCell>
        <mxCell id="JbLaRPaKQ31GcKQDkZjJ-2" value="- complement: String" style="text;align=left;verticalAlign=top;spacingLeft=4;spacingRight=4;overflow=hidden;rotatable=0;points=[[0,0.5],[1,0.5]];portConstraint=eastwest;whiteSpace=wrap;html=1;fontFamily=Cascadia Code;" vertex="1" parent="45oS4C0SvB9Kl9MP0dxG-27">
          <mxGeometry y="130" width="160" height="26" as="geometry" />
        </mxCell>
        <mxCell id="WNG-E03-8D0otMJcHpS6-69" value="- city: String" style="text;align=left;verticalAlign=top;spacingLeft=4;spacingRight=4;overflow=hidden;rotatable=0;points=[[0,0.5],[1,0.5]];portConstraint=eastwest;whiteSpace=wrap;html=1;fontFamily=Cascadia Code;" parent="45oS4C0SvB9Kl9MP0dxG-27" vertex="1">
          <mxGeometry y="156" width="160" height="26" as="geometry" />
        </mxCell>
        <mxCell id="WNG-E03-8D0otMJcHpS6-71" value="- state: String" style="text;align=left;verticalAlign=top;spacingLeft=4;spacingRight=4;overflow=hidden;rotatable=0;points=[[0,0.5],[1,0.5]];portConstraint=eastwest;whiteSpace=wrap;html=1;fontFamily=Cascadia Code;" parent="45oS4C0SvB9Kl9MP0dxG-27" vertex="1">
          <mxGeometry y="182" width="160" height="26" as="geometry" />
        </mxCell>
        <mxCell id="WNG-E03-8D0otMJcHpS6-72" value="- country: String" style="text;align=left;verticalAlign=top;spacingLeft=4;spacingRight=4;overflow=hidden;rotatable=0;points=[[0,0.5],[1,0.5]];portConstraint=eastwest;whiteSpace=wrap;html=1;fontFamily=Cascadia Code;" parent="45oS4C0SvB9Kl9MP0dxG-27" vertex="1">
          <mxGeometry y="208" width="160" height="26" as="geometry" />
        </mxCell>
        <mxCell id="45oS4C0SvB9Kl9MP0dxG-31" value="Store" style="swimlane;fontStyle=1;align=center;verticalAlign=top;childLayout=stackLayout;horizontal=1;startSize=26;horizontalStack=0;resizeParent=1;resizeParentMax=0;resizeLast=0;collapsible=1;marginBottom=0;whiteSpace=wrap;html=1;fontFamily=Cascadia Code;rounded=1;fillColor=#dae8fc;strokeColor=#6c8ebf;" parent="1" vertex="1">
          <mxGeometry x="619.96" y="672" width="160" height="78" as="geometry" />
        </mxCell>
        <mxCell id="45oS4C0SvB9Kl9MP0dxG-32" value="- id: UUID" style="text;align=left;verticalAlign=top;spacingLeft=4;spacingRight=4;overflow=hidden;rotatable=0;points=[[0,0.5],[1,0.5]];portConstraint=eastwest;whiteSpace=wrap;html=1;fontFamily=Cascadia Code;" parent="45oS4C0SvB9Kl9MP0dxG-31" vertex="1">
          <mxGeometry y="26" width="160" height="26" as="geometry" />
        </mxCell>
        <mxCell id="WNG-E03-8D0otMJcHpS6-84" value="- name:String" style="text;align=left;verticalAlign=top;spacingLeft=4;spacingRight=4;overflow=hidden;rotatable=0;points=[[0,0.5],[1,0.5]];portConstraint=eastwest;whiteSpace=wrap;html=1;fontFamily=Cascadia Code;" parent="45oS4C0SvB9Kl9MP0dxG-31" vertex="1">
          <mxGeometry y="52" width="160" height="26" as="geometry" />
        </mxCell>
        <mxCell id="WNG-E03-8D0otMJcHpS6-1" value="Diagrama de Classes" style="text;html=1;align=center;verticalAlign=middle;whiteSpace=wrap;rounded=0;fontStyle=1;fontSize=22;" parent="1" vertex="1">
          <mxGeometry x="30" y="10" width="240" height="40" as="geometry" />
        </mxCell>
        <mxCell id="WNG-E03-8D0otMJcHpS6-2" value="Modelo de Classes de Entidade" style="text;html=1;align=center;verticalAlign=middle;whiteSpace=wrap;rounded=0;fontStyle=1;fontSize=22;" parent="1" vertex="1">
          <mxGeometry x="30" y="-1130" width="340" height="40" as="geometry" />
        </mxCell>
        <mxCell id="WNG-E03-8D0otMJcHpS6-20" style="edgeStyle=orthogonalEdgeStyle;shape=connector;curved=0;rounded=1;orthogonalLoop=1;jettySize=auto;html=1;exitX=1;exitY=0.5;exitDx=0;exitDy=0;entryX=0.5;entryY=0;entryDx=0;entryDy=0;strokeColor=default;align=center;verticalAlign=middle;fontFamily=Helvetica;fontSize=11;fontColor=default;labelBackgroundColor=default;startArrow=none;startFill=0;startSize=10;endArrow=none;endFill=0;endSize=10;" parent="1" source="WNG-E03-8D0otMJcHpS6-3" target="WNG-E03-8D0otMJcHpS6-6" edge="1">
          <mxGeometry relative="1" as="geometry">
            <Array as="points">
              <mxPoint x="480" y="-850" />
            </Array>
          </mxGeometry>
        </mxCell>
        <mxCell id="WNG-E03-8D0otMJcHpS6-24" value="0..*" style="edgeLabel;html=1;align=center;verticalAlign=middle;resizable=0;points=[];fontFamily=Helvetica;fontSize=11;fontColor=default;labelBackgroundColor=default;" parent="WNG-E03-8D0otMJcHpS6-20" vertex="1" connectable="0">
          <mxGeometry x="-0.7188" relative="1" as="geometry">
            <mxPoint x="-30" y="-20" as="offset" />
          </mxGeometry>
        </mxCell>
        <mxCell id="WNG-E03-8D0otMJcHpS6-25" value="1" style="edgeLabel;html=1;align=center;verticalAlign=middle;resizable=0;points=[];fontFamily=Helvetica;fontSize=11;fontColor=default;labelBackgroundColor=default;" parent="WNG-E03-8D0otMJcHpS6-20" vertex="1" connectable="0">
          <mxGeometry x="0.9397" y="-1" relative="1" as="geometry">
            <mxPoint x="11" y="1" as="offset" />
          </mxGeometry>
        </mxCell>
        <mxCell id="WNG-E03-8D0otMJcHpS6-3" value="&lt;font face=&quot;Cascadia Code&quot;&gt;&lt;b&gt;Product&lt;/b&gt;&lt;/font&gt;" style="ellipse;shape=umlEntity;whiteSpace=wrap;html=1;fillColor=#dae8fc;strokeColor=#6c8ebf;" parent="1" vertex="1">
          <mxGeometry x="360" y="-890" width="80" height="80" as="geometry" />
        </mxCell>
        <mxCell id="WNG-E03-8D0otMJcHpS6-11" style="edgeStyle=orthogonalEdgeStyle;rounded=1;orthogonalLoop=1;jettySize=auto;html=1;endArrow=none;endFill=0;curved=0;" parent="1" source="WNG-E03-8D0otMJcHpS6-4" target="WNG-E03-8D0otMJcHpS6-3" edge="1">
          <mxGeometry relative="1" as="geometry" />
        </mxCell>
        <mxCell id="WNG-E03-8D0otMJcHpS6-12" value="1" style="edgeLabel;html=1;align=center;verticalAlign=middle;resizable=0;points=[];" parent="WNG-E03-8D0otMJcHpS6-11" vertex="1" connectable="0">
          <mxGeometry x="0.8681" y="1" relative="1" as="geometry">
            <mxPoint x="-1" y="-9" as="offset" />
          </mxGeometry>
        </mxCell>
        <mxCell id="WNG-E03-8D0otMJcHpS6-13" value="0..*" style="edgeLabel;html=1;align=center;verticalAlign=middle;resizable=0;points=[];" parent="WNG-E03-8D0otMJcHpS6-11" vertex="1" connectable="0">
          <mxGeometry x="-0.8983" y="2" relative="1" as="geometry">
            <mxPoint x="3" y="-8" as="offset" />
          </mxGeometry>
        </mxCell>
        <mxCell id="WNG-E03-8D0otMJcHpS6-34" style="edgeStyle=orthogonalEdgeStyle;shape=connector;curved=0;rounded=1;orthogonalLoop=1;jettySize=auto;html=1;entryX=1;entryY=0.5;entryDx=0;entryDy=0;strokeColor=default;align=center;verticalAlign=middle;fontFamily=Helvetica;fontSize=11;fontColor=default;labelBackgroundColor=default;startArrow=none;startFill=0;startSize=10;endArrow=none;endFill=0;endSize=10;" parent="1" source="WNG-E03-8D0otMJcHpS6-4" target="WNG-E03-8D0otMJcHpS6-33" edge="1">
          <mxGeometry relative="1" as="geometry" />
        </mxCell>
        <mxCell id="WNG-E03-8D0otMJcHpS6-38" value="1" style="edgeLabel;html=1;align=center;verticalAlign=middle;resizable=0;points=[];fontFamily=Helvetica;fontSize=11;fontColor=default;labelBackgroundColor=default;" parent="WNG-E03-8D0otMJcHpS6-34" vertex="1" connectable="0">
          <mxGeometry x="0.775" relative="1" as="geometry">
            <mxPoint x="1" y="-10" as="offset" />
          </mxGeometry>
        </mxCell>
        <mxCell id="WNG-E03-8D0otMJcHpS6-39" value="0..*" style="edgeLabel;html=1;align=center;verticalAlign=middle;resizable=0;points=[];fontFamily=Helvetica;fontSize=11;fontColor=default;labelBackgroundColor=default;" parent="WNG-E03-8D0otMJcHpS6-34" vertex="1" connectable="0">
          <mxGeometry x="-0.8" y="-2" relative="1" as="geometry">
            <mxPoint x="-2" y="-8" as="offset" />
          </mxGeometry>
        </mxCell>
        <mxCell id="WNG-E03-8D0otMJcHpS6-4" value="&lt;font face=&quot;Cascadia Code&quot;&gt;&lt;b&gt;Order&lt;/b&gt;&lt;/font&gt;" style="ellipse;shape=umlEntity;whiteSpace=wrap;html=1;fillColor=#dae8fc;strokeColor=#6c8ebf;" parent="1" vertex="1">
          <mxGeometry x="190" y="-890" width="80" height="80" as="geometry" />
        </mxCell>
        <mxCell id="WNG-E03-8D0otMJcHpS6-6" value="&lt;font face=&quot;Cascadia Code&quot;&gt;&lt;b&gt;Store&lt;/b&gt;&lt;/font&gt;" style="ellipse;shape=umlEntity;whiteSpace=wrap;html=1;fillColor=#dae8fc;strokeColor=#6c8ebf;" parent="1" vertex="1">
          <mxGeometry x="440" y="-530" width="80" height="80" as="geometry" />
        </mxCell>
        <mxCell id="WNG-E03-8D0otMJcHpS6-14" style="edgeStyle=orthogonalEdgeStyle;rounded=1;orthogonalLoop=1;jettySize=auto;html=1;entryX=0.5;entryY=0;entryDx=0;entryDy=0;endArrow=none;endFill=0;endSize=10;curved=0;startArrow=blockThin;startFill=0;startSize=10;exitX=0.5;exitY=1;exitDx=0;exitDy=0;" parent="1" source="WNG-E03-8D0otMJcHpS6-7" target="WNG-E03-8D0otMJcHpS6-8" edge="1">
          <mxGeometry relative="1" as="geometry">
            <mxPoint x="250" y="-630" as="sourcePoint" />
          </mxGeometry>
        </mxCell>
        <mxCell id="WNG-E03-8D0otMJcHpS6-15" style="edgeStyle=orthogonalEdgeStyle;rounded=1;orthogonalLoop=1;jettySize=auto;html=1;entryX=0.5;entryY=0;entryDx=0;entryDy=0;endArrow=none;endFill=0;endSize=10;curved=0;" parent="1" target="WNG-E03-8D0otMJcHpS6-9" edge="1">
          <mxGeometry relative="1" as="geometry">
            <mxPoint x="210" y="-660" as="sourcePoint" />
            <Array as="points">
              <mxPoint x="210" y="-640" />
              <mxPoint x="280" y="-640" />
            </Array>
          </mxGeometry>
        </mxCell>
        <mxCell id="WNG-E03-8D0otMJcHpS6-37" style="edgeStyle=orthogonalEdgeStyle;shape=connector;curved=0;rounded=1;orthogonalLoop=1;jettySize=auto;html=1;strokeColor=default;align=center;verticalAlign=middle;fontFamily=Helvetica;fontSize=11;fontColor=default;labelBackgroundColor=default;startArrow=none;startFill=0;startSize=10;endArrow=none;endFill=0;endSize=10;entryX=0.5;entryY=1;entryDx=0;entryDy=0;exitX=0;exitY=0.5;exitDx=0;exitDy=0;" parent="1" source="WNG-E03-8D0otMJcHpS6-8" target="WNG-E03-8D0otMJcHpS6-33" edge="1">
          <mxGeometry relative="1" as="geometry">
            <mxPoint x="80" y="-780" as="targetPoint" />
          </mxGeometry>
        </mxCell>
        <mxCell id="WNG-E03-8D0otMJcHpS6-40" value="1" style="edgeLabel;html=1;align=center;verticalAlign=middle;resizable=0;points=[];fontFamily=Helvetica;fontSize=11;fontColor=default;labelBackgroundColor=default;" parent="WNG-E03-8D0otMJcHpS6-37" vertex="1" connectable="0">
          <mxGeometry x="0.9369" relative="1" as="geometry">
            <mxPoint x="10" as="offset" />
          </mxGeometry>
        </mxCell>
        <mxCell id="WNG-E03-8D0otMJcHpS6-41" value="1" style="edgeLabel;html=1;align=center;verticalAlign=middle;resizable=0;points=[];fontFamily=Helvetica;fontSize=11;fontColor=default;labelBackgroundColor=default;" parent="WNG-E03-8D0otMJcHpS6-37" vertex="1" connectable="0">
          <mxGeometry x="-0.6683" y="1" relative="1" as="geometry">
            <mxPoint x="11" as="offset" />
          </mxGeometry>
        </mxCell>
        <mxCell id="WNG-E03-8D0otMJcHpS6-7" value="&lt;font face=&quot;Cascadia Code&quot;&gt;&lt;b&gt;User&lt;/b&gt;&lt;/font&gt;" style="ellipse;shape=umlEntity;whiteSpace=wrap;html=1;fillColor=#dae8fc;strokeColor=#6c8ebf;" parent="1" vertex="1">
          <mxGeometry x="170" y="-760" width="80" height="80" as="geometry" />
        </mxCell>
        <mxCell id="WNG-E03-8D0otMJcHpS6-17" style="rounded=1;orthogonalLoop=1;jettySize=auto;html=1;entryX=1;entryY=0.5;entryDx=0;entryDy=0;edgeStyle=orthogonalEdgeStyle;endArrow=none;endFill=0;curved=0;exitX=0.5;exitY=1;exitDx=0;exitDy=0;" parent="1" source="WNG-E03-8D0otMJcHpS6-8" target="WNG-E03-8D0otMJcHpS6-10" edge="1">
          <mxGeometry relative="1" as="geometry">
            <Array as="points">
              <mxPoint x="140" y="-440" />
            </Array>
          </mxGeometry>
        </mxCell>
        <mxCell id="WNG-E03-8D0otMJcHpS6-8" value="&lt;font face=&quot;Cascadia Code&quot;&gt;&lt;b&gt;Customer&lt;/b&gt;&lt;/font&gt;" style="ellipse;shape=umlEntity;whiteSpace=wrap;html=1;fillColor=#dae8fc;strokeColor=#6c8ebf;" parent="1" vertex="1">
          <mxGeometry x="100" y="-600" width="80" height="80" as="geometry" />
        </mxCell>
        <mxCell id="WNG-E03-8D0otMJcHpS6-16" style="edgeStyle=orthogonalEdgeStyle;rounded=1;orthogonalLoop=1;jettySize=auto;html=1;entryX=0;entryY=0.5;entryDx=0;entryDy=0;endArrow=none;endFill=0;curved=0;exitX=0.5;exitY=1;exitDx=0;exitDy=0;" parent="1" source="WNG-E03-8D0otMJcHpS6-9" target="WNG-E03-8D0otMJcHpS6-6" edge="1">
          <mxGeometry relative="1" as="geometry" />
        </mxCell>
        <mxCell id="WNG-E03-8D0otMJcHpS6-27" value="0..*" style="edgeLabel;html=1;align=center;verticalAlign=middle;resizable=0;points=[];fontFamily=Helvetica;fontSize=11;fontColor=default;labelBackgroundColor=default;" parent="WNG-E03-8D0otMJcHpS6-16" vertex="1" connectable="0">
          <mxGeometry x="-0.8454" y="2" relative="1" as="geometry">
            <mxPoint x="18" y="5" as="offset" />
          </mxGeometry>
        </mxCell>
        <mxCell id="WNG-E03-8D0otMJcHpS6-28" value="1" style="edgeLabel;html=1;align=center;verticalAlign=middle;resizable=0;points=[];fontFamily=Helvetica;fontSize=11;fontColor=default;labelBackgroundColor=default;" parent="WNG-E03-8D0otMJcHpS6-16" vertex="1" connectable="0">
          <mxGeometry x="0.8833" relative="1" as="geometry">
            <mxPoint y="-10" as="offset" />
          </mxGeometry>
        </mxCell>
        <mxCell id="WNG-E03-8D0otMJcHpS6-18" style="edgeStyle=orthogonalEdgeStyle;rounded=1;orthogonalLoop=1;jettySize=auto;html=1;entryX=0.5;entryY=1;entryDx=0;entryDy=0;exitX=1;exitY=0.5;exitDx=0;exitDy=0;curved=0;endArrow=none;endFill=0;" parent="1" source="WNG-E03-8D0otMJcHpS6-9" target="WNG-E03-8D0otMJcHpS6-3" edge="1">
          <mxGeometry relative="1" as="geometry">
            <Array as="points">
              <mxPoint x="400" y="-560" />
            </Array>
          </mxGeometry>
        </mxCell>
        <mxCell id="WNG-E03-8D0otMJcHpS6-42" value="0..*" style="edgeLabel;html=1;align=center;verticalAlign=middle;resizable=0;points=[];fontFamily=Helvetica;fontSize=11;fontColor=default;labelBackgroundColor=default;" parent="WNG-E03-8D0otMJcHpS6-18" vertex="1" connectable="0">
          <mxGeometry x="0.9192" y="-2" relative="1" as="geometry">
            <mxPoint x="12" as="offset" />
          </mxGeometry>
        </mxCell>
        <mxCell id="WNG-E03-8D0otMJcHpS6-43" value="1" style="edgeLabel;html=1;align=center;verticalAlign=middle;resizable=0;points=[];fontFamily=Helvetica;fontSize=11;fontColor=default;labelBackgroundColor=default;" parent="WNG-E03-8D0otMJcHpS6-18" vertex="1" connectable="0">
          <mxGeometry x="-0.9409" relative="1" as="geometry">
            <mxPoint y="10" as="offset" />
          </mxGeometry>
        </mxCell>
        <mxCell id="WNG-E03-8D0otMJcHpS6-9" value="&lt;font face=&quot;Cascadia Code&quot;&gt;&lt;b&gt;Seller&lt;/b&gt;&lt;/font&gt;" style="ellipse;shape=umlEntity;whiteSpace=wrap;html=1;fillColor=#dae8fc;strokeColor=#6c8ebf;" parent="1" vertex="1">
          <mxGeometry x="240" y="-600" width="80" height="80" as="geometry" />
        </mxCell>
        <mxCell id="WNG-E03-8D0otMJcHpS6-10" value="&lt;font face=&quot;Cascadia Code&quot;&gt;&lt;b&gt;Address&lt;/b&gt;&lt;/font&gt;" style="ellipse;shape=umlEntity;whiteSpace=wrap;html=1;fillColor=#dae8fc;strokeColor=#6c8ebf;" parent="1" vertex="1">
          <mxGeometry x="30" y="-480" width="80" height="80" as="geometry" />
        </mxCell>
        <mxCell id="WNG-E03-8D0otMJcHpS6-33" value="&lt;font face=&quot;Cascadia Code&quot;&gt;&lt;b&gt;Cart&lt;/b&gt;&lt;/font&gt;" style="ellipse;shape=umlEntity;whiteSpace=wrap;html=1;fillColor=#dae8fc;strokeColor=#6c8ebf;" parent="1" vertex="1">
          <mxGeometry x="30" y="-890" width="80" height="80" as="geometry" />
        </mxCell>
        <mxCell id="WNG-E03-8D0otMJcHpS6-49" style="edgeStyle=orthogonalEdgeStyle;rounded=1;orthogonalLoop=1;jettySize=auto;html=1;entryX=0.5;entryY=0;entryDx=0;entryDy=0;endArrow=none;endFill=0;endSize=10;curved=0;startArrow=blockThin;startFill=0;startSize=10;" parent="1" source="45oS4C0SvB9Kl9MP0dxG-11" target="45oS4C0SvB9Kl9MP0dxG-23" edge="1">
          <mxGeometry relative="1" as="geometry">
            <mxPoint x="380.39" y="500" as="sourcePoint" />
            <mxPoint x="310.39" y="580" as="targetPoint" />
            <Array as="points">
              <mxPoint x="370.39" y="540" />
              <mxPoint x="260.39" y="540" />
            </Array>
          </mxGeometry>
        </mxCell>
        <mxCell id="WNG-E03-8D0otMJcHpS6-50" style="edgeStyle=orthogonalEdgeStyle;rounded=1;orthogonalLoop=1;jettySize=auto;html=1;entryX=0.5;entryY=0;entryDx=0;entryDy=0;endArrow=none;endFill=0;endSize=10;curved=0;" parent="1" target="45oS4C0SvB9Kl9MP0dxG-15" edge="1">
          <mxGeometry relative="1" as="geometry">
            <mxPoint x="370.39" y="510" as="sourcePoint" />
            <mxPoint x="450.39" y="580" as="targetPoint" />
            <Array as="points">
              <mxPoint x="370.39" y="540" />
              <mxPoint x="480.39" y="540" />
            </Array>
          </mxGeometry>
        </mxCell>
        <mxCell id="WNG-E03-8D0otMJcHpS6-51" value="Order" style="swimlane;fontStyle=1;align=center;verticalAlign=top;childLayout=stackLayout;horizontal=1;startSize=26;horizontalStack=0;resizeParent=1;resizeParentMax=0;resizeLast=0;collapsible=1;marginBottom=0;whiteSpace=wrap;html=1;fontFamily=Cascadia Code;rounded=1;fillColor=#dae8fc;strokeColor=#6c8ebf;" parent="1" vertex="1">
          <mxGeometry x="310" y="70" width="210" height="182" as="geometry" />
        </mxCell>
        <mxCell id="WNG-E03-8D0otMJcHpS6-52" value="- id: UUID" style="text;align=left;verticalAlign=top;spacingLeft=4;spacingRight=4;overflow=hidden;rotatable=0;points=[[0,0.5],[1,0.5]];portConstraint=eastwest;whiteSpace=wrap;html=1;fontFamily=Cascadia Code;" parent="WNG-E03-8D0otMJcHpS6-51" vertex="1">
          <mxGeometry y="26" width="210" height="26" as="geometry" />
        </mxCell>
        <mxCell id="WNG-E03-8D0otMJcHpS6-53" value="- cart: Cart" style="text;align=left;verticalAlign=top;spacingLeft=4;spacingRight=4;overflow=hidden;rotatable=0;points=[[0,0.5],[1,0.5]];portConstraint=eastwest;whiteSpace=wrap;html=1;fontFamily=Cascadia Code;" parent="WNG-E03-8D0otMJcHpS6-51" vertex="1">
          <mxGeometry y="52" width="210" height="26" as="geometry" />
        </mxCell>
        <mxCell id="WNG-E03-8D0otMJcHpS6-54" value="- product: Product" style="text;align=left;verticalAlign=top;spacingLeft=4;spacingRight=4;overflow=hidden;rotatable=0;points=[[0,0.5],[1,0.5]];portConstraint=eastwest;whiteSpace=wrap;html=1;fontFamily=Cascadia Code;" parent="WNG-E03-8D0otMJcHpS6-51" vertex="1">
          <mxGeometry y="78" width="210" height="26" as="geometry" />
        </mxCell>
        <mxCell id="WNG-E03-8D0otMJcHpS6-60" value="- amount: int" style="text;align=left;verticalAlign=top;spacingLeft=4;spacingRight=4;overflow=hidden;rotatable=0;points=[[0,0.5],[1,0.5]];portConstraint=eastwest;whiteSpace=wrap;html=1;fontFamily=Cascadia Code;" parent="WNG-E03-8D0otMJcHpS6-51" vertex="1">
          <mxGeometry y="104" width="210" height="26" as="geometry" />
        </mxCell>
        <mxCell id="WNG-E03-8D0otMJcHpS6-62" value="- /totalPrice: BigDecimal" style="text;align=left;verticalAlign=top;spacingLeft=4;spacingRight=4;overflow=hidden;rotatable=0;points=[[0,0.5],[1,0.5]];portConstraint=eastwest;whiteSpace=wrap;html=1;fontFamily=Cascadia Code;" parent="WNG-E03-8D0otMJcHpS6-51" vertex="1">
          <mxGeometry y="130" width="210" height="26" as="geometry" />
        </mxCell>
        <mxCell id="wmJKvVizC2H3wOnnuJJJ-2" value="- status: String" style="text;align=left;verticalAlign=top;spacingLeft=4;spacingRight=4;overflow=hidden;rotatable=0;points=[[0,0.5],[1,0.5]];portConstraint=eastwest;whiteSpace=wrap;html=1;fontFamily=Cascadia Code;" parent="WNG-E03-8D0otMJcHpS6-51" vertex="1">
          <mxGeometry y="156" width="210" height="26" as="geometry" />
        </mxCell>
        <mxCell id="WNG-E03-8D0otMJcHpS6-67" style="edgeStyle=orthogonalEdgeStyle;shape=connector;curved=0;rounded=1;orthogonalLoop=1;jettySize=auto;html=1;entryX=0;entryY=0.5;entryDx=0;entryDy=0;strokeColor=default;align=center;verticalAlign=middle;fontFamily=Helvetica;fontSize=11;fontColor=default;labelBackgroundColor=default;startArrow=none;startFill=0;startSize=10;endArrow=none;endFill=0;endSize=10;" parent="1" source="WNG-E03-8D0otMJcHpS6-54" target="45oS4C0SvB9Kl9MP0dxG-3" edge="1">
          <mxGeometry relative="1" as="geometry" />
        </mxCell>
        <mxCell id="WNG-E03-8D0otMJcHpS6-92" value="0..*" style="edgeLabel;html=1;align=center;verticalAlign=middle;resizable=0;points=[];fontFamily=Helvetica;fontSize=11;fontColor=default;labelBackgroundColor=default;" parent="WNG-E03-8D0otMJcHpS6-67" vertex="1" connectable="0">
          <mxGeometry x="-0.8904" relative="1" as="geometry">
            <mxPoint x="2" y="-13" as="offset" />
          </mxGeometry>
        </mxCell>
        <mxCell id="WNG-E03-8D0otMJcHpS6-95" value="1" style="edgeLabel;html=1;align=center;verticalAlign=middle;resizable=0;points=[];fontFamily=Helvetica;fontSize=11;fontColor=default;labelBackgroundColor=default;" parent="WNG-E03-8D0otMJcHpS6-67" vertex="1" connectable="0">
          <mxGeometry x="0.8224" y="-1" relative="1" as="geometry">
            <mxPoint y="-10" as="offset" />
          </mxGeometry>
        </mxCell>
        <mxCell id="WNG-E03-8D0otMJcHpS6-68" value="&lt;h1 style=&quot;margin-top: 0px;&quot;&gt;SugestÃ£o:&lt;br&gt;&lt;/h1&gt;A menos que haja outros detalhes em carrinho, ele pode ser eliminado." style="text;html=1;whiteSpace=wrap;overflow=hidden;rounded=1;fontFamily=Helvetica;fontSize=11;labelBackgroundColor=none;fillColor=#ffe6cc;strokeColor=#d79b00;imageAspect=1;fillOpacity=100;fillStyle=solid;labelPadding:10px;arcSize=5;" parent="1" vertex="1">
          <mxGeometry x="30" y="-1030" width="180" height="120" as="geometry" />
        </mxCell>
        <mxCell id="WNG-E03-8D0otMJcHpS6-73" style="edgeStyle=orthogonalEdgeStyle;shape=connector;curved=0;rounded=1;orthogonalLoop=1;jettySize=auto;html=1;strokeColor=default;align=center;verticalAlign=middle;fontFamily=Helvetica;fontSize=11;fontColor=default;labelBackgroundColor=default;startArrow=none;startFill=0;startSize=10;endArrow=none;endFill=0;endSize=10;exitX=0.5;exitY=0;exitDx=0;exitDy=0;" parent="1" source="45oS4C0SvB9Kl9MP0dxG-27" target="45oS4C0SvB9Kl9MP0dxG-24" edge="1">
          <mxGeometry relative="1" as="geometry">
            <mxPoint x="336.6000000000001" y="692.4160000000002" as="targetPoint" />
          </mxGeometry>
        </mxCell>
        <mxCell id="WNG-E03-8D0otMJcHpS6-77" style="edgeStyle=orthogonalEdgeStyle;shape=connector;curved=0;rounded=1;orthogonalLoop=1;jettySize=auto;html=1;entryX=0;entryY=0.5;entryDx=0;entryDy=0;strokeColor=default;align=center;verticalAlign=middle;fontFamily=Helvetica;fontSize=11;fontColor=default;labelBackgroundColor=default;startArrow=none;startFill=0;startSize=10;endArrow=none;endFill=0;endSize=10;" parent="1" source="45oS4C0SvB9Kl9MP0dxG-8" target="WNG-E03-8D0otMJcHpS6-53" edge="1">
          <mxGeometry relative="1" as="geometry" />
        </mxCell>
        <mxCell id="WNG-E03-8D0otMJcHpS6-93" value="0..*" style="edgeLabel;html=1;align=center;verticalAlign=middle;resizable=0;points=[];fontFamily=Helvetica;fontSize=11;fontColor=default;labelBackgroundColor=default;" parent="WNG-E03-8D0otMJcHpS6-77" vertex="1" connectable="0">
          <mxGeometry x="0.7173" relative="1" as="geometry">
            <mxPoint x="20" y="-4" as="offset" />
          </mxGeometry>
        </mxCell>
        <mxCell id="WNG-E03-8D0otMJcHpS6-94" value="1" style="edgeLabel;html=1;align=center;verticalAlign=middle;resizable=0;points=[];fontFamily=Helvetica;fontSize=11;fontColor=default;labelBackgroundColor=default;" parent="WNG-E03-8D0otMJcHpS6-77" vertex="1" connectable="0">
          <mxGeometry x="-0.894" relative="1" as="geometry">
            <mxPoint x="-8" y="-9" as="offset" />
          </mxGeometry>
        </mxCell>
        <mxCell id="WNG-E03-8D0otMJcHpS6-78" style="edgeStyle=orthogonalEdgeStyle;shape=connector;curved=0;rounded=1;orthogonalLoop=1;jettySize=auto;html=1;exitX=0;exitY=0.5;exitDx=0;exitDy=0;strokeColor=default;align=center;verticalAlign=middle;fontFamily=Helvetica;fontSize=11;fontColor=default;labelBackgroundColor=default;startArrow=none;startFill=0;startSize=10;endArrow=none;endFill=0;endSize=10;entryX=0;entryY=0.5;entryDx=0;entryDy=0;" parent="1" source="WNG-E03-8D0otMJcHpS6-63" target="WNG-E03-8D0otMJcHpS6-79" edge="1">
          <mxGeometry relative="1" as="geometry">
            <mxPoint x="170" y="490" as="targetPoint" />
            <Array as="points">
              <mxPoint x="50" y="447" />
              <mxPoint x="50" y="619" />
            </Array>
          </mxGeometry>
        </mxCell>
        <mxCell id="WNG-E03-8D0otMJcHpS6-96" value="1" style="edgeLabel;html=1;align=center;verticalAlign=middle;resizable=0;points=[];fontFamily=Helvetica;fontSize=11;fontColor=default;labelBackgroundColor=default;" parent="WNG-E03-8D0otMJcHpS6-78" vertex="1" connectable="0">
          <mxGeometry x="0.9753" y="-2" relative="1" as="geometry">
            <mxPoint x="-6" y="-12" as="offset" />
          </mxGeometry>
        </mxCell>
        <mxCell id="WNG-E03-8D0otMJcHpS6-97" value="1" style="edgeLabel;html=1;align=center;verticalAlign=middle;resizable=0;points=[];fontFamily=Helvetica;fontSize=11;fontColor=default;labelBackgroundColor=default;" parent="WNG-E03-8D0otMJcHpS6-78" vertex="1" connectable="0">
          <mxGeometry x="-0.9723" y="-1" relative="1" as="geometry">
            <mxPoint x="-5" y="14" as="offset" />
          </mxGeometry>
        </mxCell>
        <mxCell id="WNG-E03-8D0otMJcHpS6-81" style="edgeStyle=orthogonalEdgeStyle;shape=connector;curved=0;rounded=1;orthogonalLoop=1;jettySize=auto;html=1;strokeColor=default;align=center;verticalAlign=middle;fontFamily=Helvetica;fontSize=11;fontColor=default;labelBackgroundColor=default;startArrow=none;startFill=0;startSize=10;endArrow=none;endFill=0;endSize=10;" parent="1" source="WNG-E03-8D0otMJcHpS6-80" target="45oS4C0SvB9Kl9MP0dxG-32" edge="1">
          <mxGeometry relative="1" as="geometry" />
        </mxCell>
        <mxCell id="WNG-E03-8D0otMJcHpS6-102" value="0..*" style="edgeLabel;html=1;align=center;verticalAlign=middle;resizable=0;points=[];fontFamily=Helvetica;fontSize=11;fontColor=default;labelBackgroundColor=default;" parent="WNG-E03-8D0otMJcHpS6-81" vertex="1" connectable="0">
          <mxGeometry x="-0.7896" relative="1" as="geometry">
            <mxPoint x="-3" y="13" as="offset" />
          </mxGeometry>
        </mxCell>
        <mxCell id="WNG-E03-8D0otMJcHpS6-103" value="1" style="edgeLabel;html=1;align=center;verticalAlign=middle;resizable=0;points=[];fontFamily=Helvetica;fontSize=11;fontColor=default;labelBackgroundColor=default;" parent="WNG-E03-8D0otMJcHpS6-81" vertex="1" connectable="0">
          <mxGeometry x="0.8827" y="-2" relative="1" as="geometry">
            <mxPoint y="7" as="offset" />
          </mxGeometry>
        </mxCell>
        <mxCell id="WNG-E03-8D0otMJcHpS6-90" style="edgeStyle=orthogonalEdgeStyle;shape=connector;curved=0;rounded=1;orthogonalLoop=1;jettySize=auto;html=1;entryX=1;entryY=0.5;entryDx=0;entryDy=0;strokeColor=default;align=center;verticalAlign=middle;fontFamily=Helvetica;fontSize=11;fontColor=default;labelBackgroundColor=default;startArrow=none;startFill=0;startSize=10;endArrow=none;endFill=0;endSize=10;" parent="1" source="WNG-E03-8D0otMJcHpS6-88" target="45oS4C0SvB9Kl9MP0dxG-16" edge="1">
          <mxGeometry relative="1" as="geometry" />
        </mxCell>
        <mxCell id="WNG-E03-8D0otMJcHpS6-98" value="1" style="edgeLabel;html=1;align=center;verticalAlign=middle;resizable=0;points=[];fontFamily=Helvetica;fontSize=11;fontColor=default;labelBackgroundColor=default;" parent="WNG-E03-8D0otMJcHpS6-90" vertex="1" connectable="0">
          <mxGeometry x="0.9373" y="-1" relative="1" as="geometry">
            <mxPoint y="-12" as="offset" />
          </mxGeometry>
        </mxCell>
        <mxCell id="WNG-E03-8D0otMJcHpS6-99" value="0..*" style="edgeLabel;html=1;align=center;verticalAlign=middle;resizable=0;points=[];fontFamily=Helvetica;fontSize=11;fontColor=default;labelBackgroundColor=default;" parent="WNG-E03-8D0otMJcHpS6-90" vertex="1" connectable="0">
          <mxGeometry x="-0.912" y="-2" relative="1" as="geometry">
            <mxPoint x="9" y="-11" as="offset" />
          </mxGeometry>
        </mxCell>
        <mxCell id="WNG-E03-8D0otMJcHpS6-91" style="edgeStyle=orthogonalEdgeStyle;shape=connector;curved=0;rounded=1;orthogonalLoop=1;jettySize=auto;html=1;entryX=1;entryY=0.5;entryDx=0;entryDy=0;strokeColor=default;align=center;verticalAlign=middle;fontFamily=Helvetica;fontSize=11;fontColor=default;labelBackgroundColor=default;startArrow=none;startFill=0;startSize=10;endArrow=none;endFill=0;endSize=10;exitX=1;exitY=0.5;exitDx=0;exitDy=0;" parent="1" source="WNG-E03-8D0otMJcHpS6-89" target="45oS4C0SvB9Kl9MP0dxG-31" edge="1">
          <mxGeometry relative="1" as="geometry" />
        </mxCell>
        <mxCell id="WNG-E03-8D0otMJcHpS6-100" value="0..*" style="edgeLabel;html=1;align=center;verticalAlign=middle;resizable=0;points=[];fontFamily=Helvetica;fontSize=11;fontColor=default;labelBackgroundColor=default;" parent="WNG-E03-8D0otMJcHpS6-91" vertex="1" connectable="0">
          <mxGeometry x="-0.8203" y="2" relative="1" as="geometry">
            <mxPoint x="-2" y="-35" as="offset" />
          </mxGeometry>
        </mxCell>
        <mxCell id="WNG-E03-8D0otMJcHpS6-101" value="1" style="edgeLabel;html=1;align=center;verticalAlign=middle;resizable=0;points=[];fontFamily=Helvetica;fontSize=11;fontColor=default;labelBackgroundColor=default;" parent="WNG-E03-8D0otMJcHpS6-91" vertex="1" connectable="0">
          <mxGeometry x="0.8615" y="1" relative="1" as="geometry">
            <mxPoint x="-11" y="21" as="offset" />
          </mxGeometry>
        </mxCell>
        <mxCell id="wmJKvVizC2H3wOnnuJJJ-3" value="Sale" style="swimlane;fontStyle=1;align=center;verticalAlign=top;childLayout=stackLayout;horizontal=1;startSize=26;horizontalStack=0;resizeParent=1;resizeParentMax=0;resizeLast=0;collapsible=1;marginBottom=0;whiteSpace=wrap;html=1;fontFamily=Cascadia Code;rounded=1;fillColor=#dae8fc;strokeColor=#6c8ebf;" parent="1" vertex="1">
          <mxGeometry x="60" y="57" width="180" height="234" as="geometry" />
        </mxCell>
        <mxCell id="wmJKvVizC2H3wOnnuJJJ-4" value="- id: UUID" style="text;align=left;verticalAlign=top;spacingLeft=4;spacingRight=4;overflow=hidden;rotatable=0;points=[[0,0.5],[1,0.5]];portConstraint=eastwest;whiteSpace=wrap;html=1;fontFamily=Cascadia Code;" parent="wmJKvVizC2H3wOnnuJJJ-3" vertex="1">
          <mxGeometry y="26" width="180" height="26" as="geometry" />
        </mxCell>
        <mxCell id="wmJKvVizC2H3wOnnuJJJ-20" value="- customer: Customer" style="text;align=left;verticalAlign=top;spacingLeft=4;spacingRight=4;overflow=hidden;rotatable=0;points=[[0,0.5],[1,0.5]];portConstraint=eastwest;whiteSpace=wrap;html=1;fontFamily=Cascadia Code;" parent="wmJKvVizC2H3wOnnuJJJ-3" vertex="1">
          <mxGeometry y="52" width="180" height="26" as="geometry" />
        </mxCell>
        <mxCell id="wmJKvVizC2H3wOnnuJJJ-10" value="- order: Order" style="text;align=left;verticalAlign=top;spacingLeft=4;spacingRight=4;overflow=hidden;rotatable=0;points=[[0,0.5],[1,0.5]];portConstraint=eastwest;whiteSpace=wrap;html=1;fontFamily=Cascadia Code;" parent="wmJKvVizC2H3wOnnuJJJ-3" vertex="1">
          <mxGeometry y="78" width="180" height="26" as="geometry" />
        </mxCell>
        <mxCell id="wmJKvVizC2H3wOnnuJJJ-11" value="- unitPrice: BigDecimal" style="text;align=left;verticalAlign=top;spacingLeft=4;spacingRight=4;overflow=hidden;rotatable=0;points=[[0,0.5],[1,0.5]];portConstraint=eastwest;whiteSpace=wrap;html=1;fontFamily=Cascadia Code;" parent="wmJKvVizC2H3wOnnuJJJ-3" vertex="1">
          <mxGeometry y="104" width="180" height="26" as="geometry" />
        </mxCell>
        <mxCell id="wmJKvVizC2H3wOnnuJJJ-13" value="- amount:int" style="text;align=left;verticalAlign=top;spacingLeft=4;spacingRight=4;overflow=hidden;rotatable=0;points=[[0,0.5],[1,0.5]];portConstraint=eastwest;whiteSpace=wrap;html=1;fontFamily=Cascadia Code;" parent="wmJKvVizC2H3wOnnuJJJ-3" vertex="1">
          <mxGeometry y="130" width="180" height="26" as="geometry" />
        </mxCell>
        <mxCell id="wmJKvVizC2H3wOnnuJJJ-12" value="- totalPrice: BigDecimal" style="text;align=left;verticalAlign=top;spacingLeft=4;spacingRight=4;overflow=hidden;rotatable=0;points=[[0,0.5],[1,0.5]];portConstraint=eastwest;whiteSpace=wrap;html=1;fontFamily=Cascadia Code;" parent="wmJKvVizC2H3wOnnuJJJ-3" vertex="1">
          <mxGeometry y="156" width="180" height="26" as="geometry" />
        </mxCell>
        <mxCell id="wmJKvVizC2H3wOnnuJJJ-14" value="- date: LocalDate" style="text;align=left;verticalAlign=top;spacingLeft=4;spacingRight=4;overflow=hidden;rotatable=0;points=[[0,0.5],[1,0.5]];portConstraint=eastwest;whiteSpace=wrap;html=1;fontFamily=Cascadia Code;" parent="wmJKvVizC2H3wOnnuJJJ-3" vertex="1">
          <mxGeometry y="182" width="180" height="26" as="geometry" />
        </mxCell>
        <mxCell id="wmJKvVizC2H3wOnnuJJJ-16" value="- status: String" style="text;align=left;verticalAlign=top;spacingLeft=4;spacingRight=4;overflow=hidden;rotatable=0;points=[[0,0.5],[1,0.5]];portConstraint=eastwest;whiteSpace=wrap;html=1;fontFamily=Cascadia Code;" parent="wmJKvVizC2H3wOnnuJJJ-3" vertex="1">
          <mxGeometry y="208" width="180" height="26" as="geometry" />
        </mxCell>
        <mxCell id="wmJKvVizC2H3wOnnuJJJ-18" style="edgeStyle=orthogonalEdgeStyle;rounded=1;orthogonalLoop=1;jettySize=auto;html=1;curved=0;endArrow=none;endFill=0;entryX=0;entryY=0.5;entryDx=0;entryDy=0;" parent="1" source="WNG-E03-8D0otMJcHpS6-79" target="wmJKvVizC2H3wOnnuJJJ-20" edge="1">
          <mxGeometry relative="1" as="geometry">
            <mxPoint x="40" y="320" as="targetPoint" />
            <Array as="points">
              <mxPoint x="20" y="619" />
              <mxPoint x="20" y="122" />
            </Array>
          </mxGeometry>
        </mxCell>
        <mxCell id="wmJKvVizC2H3wOnnuJJJ-19" style="edgeStyle=orthogonalEdgeStyle;rounded=1;orthogonalLoop=1;jettySize=auto;html=1;curved=0;endArrow=none;endFill=0;" parent="1" source="wmJKvVizC2H3wOnnuJJJ-10" target="WNG-E03-8D0otMJcHpS6-52" edge="1">
          <mxGeometry relative="1" as="geometry">
            <Array as="points">
              <mxPoint x="260" y="148" />
              <mxPoint x="260" y="109" />
            </Array>
          </mxGeometry>
        </mxCell>
      </root>
    </mxGraphModel>
  </diagram>
</mxfile>
